# xmcd
#
# Track frame offsets: 
#        150
#        17748
#        29136
#        44019
#        56026
#        76768
#        89406
#        105010
#        125386
#        137979
#
# Disc length: 1973 seconds
#
# Revision: 0
# Processed by: cddbd v1.5.2PL0 Copyright (c) Steve Scherf et al.
# Submitted via: ExactAudioCopy v1.3
#
DISCID=8107b30a
DTITLE=Joanne Cash - Home Before Dark
DYEAR=2004
DGENRE=Country
TTITLE0=Home Before Dark
TTITLE1=I Was There When It Happemed
TTITLE2=It Is Well With My Soul
TTITLE3=Welcome Back Jesus
TTITLE4=Lower Lights - w Johnny Cash
TTITLE5=I Didn't Stop Dancing
TTITLE6=Jesus Ain't Dead Anymore
TTITLE7=Half A Mile A Day
TTITLE8=Softly and Tenderly - w Johnny Cash
TTITLE9=Will The Circle Be Unbroken
EXTD=
EXTT0=
EXTT1=
EXTT2=
EXTT3=
EXTT4=
EXTT5=
EXTT6=
EXTT7=
EXTT8=
EXTT9=
PLAYORDER=
